<svg width="459" height="385" viewBox="0 0 459 385" fill="none" xmlns="http://www.w3.org/2000/svg">
<g filter="url(#filter0_b_321_717)">
<rect width="220.027" height="302.002" rx="32" transform="matrix(0.994522 0.104528 -0.104653 0.994509 32.0966 61.2419)" fill="url(#paint0_linear_321_717)"/>
<path d="M51.8987 119.632L53.5218 104.207L58.9698 104.779C61.5078 105.046 63.3926 105.915 64.624 107.387C65.87 108.86 66.3626 110.836 66.1016 113.316C65.8407 115.795 64.9468 117.633 63.4199 118.83C61.9091 120.013 59.8847 120.471 57.3466 120.204L51.8987 119.632ZM54.3744 117.967L57.4157 118.287C61.2227 118.687 63.3304 116.947 63.7387 113.067C64.1454 109.202 62.4453 107.069 58.6382 106.669L55.597 106.349L54.3744 117.967ZM73.0786 122.057C71.3283 121.873 70.0013 121.239 69.0977 120.156C68.1956 119.059 67.8343 117.657 68.0139 115.95C68.129 114.856 68.4491 113.916 68.9742 113.131C69.5154 112.332 70.2044 111.741 71.0412 111.357C71.878 110.973 72.8069 110.835 73.8279 110.942C75.3011 111.097 76.4109 111.693 77.1571 112.73C77.9049 113.752 78.192 115.088 78.0186 116.736L77.9403 117.48L70.1075 116.657C70.0346 118.891 71.0922 120.123 73.2801 120.353C73.8927 120.417 74.5007 120.385 75.1042 120.257C75.7221 120.13 76.3167 119.875 76.8879 119.493L77.3831 121.093C76.8557 121.48 76.1997 121.758 75.4151 121.926C74.6305 122.095 73.8517 122.138 73.0786 122.057ZM73.752 112.505C72.833 112.408 72.0738 112.616 71.4742 113.128C70.8747 113.64 70.4667 114.364 70.2502 115.3L76.2233 115.928C76.2839 114.932 76.102 114.138 75.6774 113.548C75.2544 112.943 74.6126 112.595 73.752 112.505ZM85.5523 123.368C84.7355 123.282 84.0327 123.024 83.4438 122.593C82.855 122.163 82.4396 121.625 82.1978 120.98L82.0067 122.796L79.8406 122.568L81.4638 107.144L83.6736 107.376L82.9921 113.852C83.3744 113.302 83.8903 112.885 84.5398 112.599C85.2038 112.315 85.9297 112.214 86.7173 112.297C87.6654 112.397 88.4658 112.709 89.1183 113.235C89.7855 113.762 90.2649 114.462 90.5567 115.333C90.8646 116.191 90.9586 117.189 90.8389 118.327C90.7192 119.465 90.4187 120.428 89.9374 121.218C89.4706 122.01 88.8561 122.594 88.0938 122.971C87.3476 123.335 86.5004 123.468 85.5523 123.368ZM85.1849 121.604C86.1039 121.7 86.8677 121.449 87.4765 120.849C88.0998 120.251 88.4768 119.332 88.6072 118.092C88.7377 116.852 88.5595 115.883 88.0728 115.182C87.6022 114.469 86.9074 114.065 85.9885 113.968C85.0695 113.871 84.2984 114.122 83.675 114.72C83.0678 115.305 82.6989 116.218 82.5685 117.458C82.438 118.697 82.6081 119.674 83.0787 120.387C83.5639 121.102 84.266 121.507 85.1849 121.604ZM93.9543 110.757L94.196 108.46L96.7778 108.731L96.5361 111.028L93.9543 110.757ZM92.7675 123.927L93.891 113.25L96.1009 113.482L94.9773 124.159L92.7675 123.927ZM102.618 125.162C101.276 125.02 100.313 124.573 99.7287 123.818C99.1445 123.064 98.9207 122.037 99.0573 120.739L99.6006 115.576L97.5221 115.357L97.7017 113.651L99.7802 113.869L100.119 110.653L102.328 110.885L101.99 114.101L105.294 114.449L105.114 116.155L101.81 115.808L101.286 120.796C101.204 121.569 101.303 122.17 101.583 122.597C101.877 123.026 102.396 123.28 103.14 123.358C103.373 123.383 103.601 123.385 103.825 123.364C104.05 123.328 104.275 123.286 104.502 123.236L104.677 124.936C104.444 125.044 104.127 125.114 103.726 125.145C103.337 125.193 102.968 125.198 102.618 125.162ZM118.96 126.879C117.4 126.715 116.099 126.254 115.058 125.496C114.017 124.737 113.259 123.736 112.786 122.492C112.328 121.234 112.184 119.796 112.355 118.177C112.525 116.558 112.964 115.188 113.672 114.068C114.394 112.95 115.344 112.128 116.52 111.602C117.696 111.077 119.064 110.896 120.625 111.061C121.675 111.171 122.635 111.441 123.504 111.872C124.389 112.289 125.106 112.837 125.654 113.514L124.675 115.247C124.067 114.578 123.42 114.075 122.732 113.737C122.061 113.387 121.31 113.168 120.479 113.08C118.816 112.906 117.493 113.283 116.511 114.212C115.528 115.141 114.938 116.546 114.74 118.428C114.542 120.309 114.826 121.814 115.592 122.942C116.36 124.055 117.575 124.698 119.238 124.873C120.069 124.961 120.849 124.91 121.577 124.721C122.321 124.519 123.059 124.154 123.793 123.627L124.39 125.525C123.714 126.059 122.899 126.445 121.945 126.684C121.006 126.925 120.011 126.99 118.96 126.879ZM129.642 128.002C128.898 127.924 128.249 127.708 127.697 127.355C127.144 127.002 126.718 126.559 126.421 126.026C126.137 125.495 126.029 124.916 126.095 124.289C126.178 123.501 126.44 122.902 126.881 122.491C127.337 122.082 128.035 121.823 128.976 121.716C129.931 121.61 131.196 121.639 132.771 121.805L133.515 121.883L133.575 121.314C133.662 120.483 133.55 119.867 133.239 119.465C132.927 119.064 132.37 118.821 131.568 118.736C130.955 118.672 130.333 118.702 129.7 118.828C129.069 118.938 128.412 119.157 127.729 119.483L127.214 117.858C127.809 117.523 128.535 117.282 129.391 117.136C130.247 116.99 131.055 116.957 131.813 117.037C133.272 117.19 134.314 117.654 134.941 118.427C135.569 119.186 135.805 120.303 135.65 121.776L134.957 128.361L132.879 128.143L133.065 126.371C132.738 126.956 132.279 127.394 131.688 127.686C131.097 127.978 130.415 128.083 129.642 128.002ZM130.245 126.473C131.033 126.555 131.718 126.347 132.302 125.848C132.885 125.349 133.221 124.676 133.31 123.83L133.372 123.24L132.65 123.164C131.586 123.052 130.741 123.015 130.118 123.053C129.509 123.092 129.061 123.222 128.772 123.442C128.499 123.649 128.341 123.964 128.296 124.387C128.238 124.942 128.38 125.414 128.723 125.804C129.066 126.179 129.574 126.402 130.245 126.473ZM138.001 128.681L139.124 118.004L141.268 118.23L141.068 120.133C141.756 118.922 142.983 118.336 144.748 118.374L145.475 118.406L145.43 120.304L144.082 120.295C142.122 120.281 141.047 121.178 140.856 122.987L140.232 128.916L138.001 128.681ZM150.062 130.148C149.129 130.05 148.327 129.745 147.659 129.232C147.006 128.706 146.527 128.007 146.22 127.134C145.914 126.261 145.821 125.256 145.941 124.118C146.06 122.981 146.36 122.024 146.84 121.249C147.321 120.459 147.936 119.874 148.683 119.496C149.431 119.117 150.279 118.978 151.227 119.077C152.029 119.162 152.726 119.412 153.316 119.828C153.906 120.244 154.323 120.767 154.567 121.397L155.25 114.899L157.46 115.131L155.837 130.556L153.671 130.328L153.867 128.469C153.493 129.078 152.966 129.532 152.286 129.829C151.62 130.128 150.879 130.234 150.062 130.148ZM150.811 128.501C151.715 128.596 152.479 128.345 153.102 127.747C153.725 127.149 154.102 126.23 154.233 124.99C154.363 123.75 154.185 122.78 153.698 122.08C153.213 121.365 152.518 120.961 151.614 120.865C150.695 120.769 149.924 121.02 149.301 121.618C148.679 122.201 148.303 123.113 148.172 124.353C148.042 125.593 148.219 126.57 148.704 127.285C149.19 127.999 149.892 128.405 150.811 128.501Z" fill="#D5D5E0"/>
<path d="M56.9708 180.897L57.3017 177.753C62.4005 177.708 64.6712 174.972 65.0128 171.726C65.3615 168.412 64.0018 165.739 59.3301 164.325L55.3881 163.125C52.804 162.34 52.231 161.938 52.384 160.484C52.5334 159.064 53.514 158.517 56.422 158.823C59.7695 159.175 60.6683 160.056 60.4192 162.423L60.3801 162.795L65.3845 163.321L65.413 163.05C65.815 159.229 64.167 156.048 59.7213 154.76L60.0665 151.48L55.3664 150.986L55.0319 154.164C49.9598 154.281 47.6482 157.08 47.3244 160.157C46.9543 163.674 48.549 166.064 52.7988 167.263L56.7141 168.392C59.8357 169.267 60.1169 169.844 59.9568 171.365C59.7967 172.887 59.0261 173.387 56.1519 173.085C52.0605 172.655 51.2222 171.849 51.4855 169.347L51.5211 169.009L46.5505 168.486L46.5042 168.926C46.0595 173.152 47.9834 175.987 52.6123 177.157L52.2707 180.403L56.9708 180.897ZM75.6229 179.781C81.3374 180.382 85.1832 178.598 85.6458 174.202C85.998 170.855 84.2432 168.687 81.0291 168.042L81.0505 167.839C84.0616 167.814 85.5387 166.123 85.8198 163.451C86.2468 159.394 83.2177 156.99 77.8752 156.428C72.0592 155.817 68.4199 158.238 67.9466 162.735L67.9075 163.107L72.8781 163.63L72.9101 163.325C73.1272 161.263 74.2394 160.764 77.2489 161.081C79.6158 161.329 80.8367 162.073 80.6481 163.865C80.456 165.691 79.6356 166.015 77.6067 165.802L73.38 165.358L72.9459 169.483L77.7137 169.984C79.9115 170.215 80.8121 170.754 80.5772 172.986C80.3566 175.082 78.8866 175.406 76.1139 175.115C72.4958 174.734 71.7822 174.044 71.9992 171.981L72.0704 171.305L67.0998 170.783L67.0215 171.527C66.5482 176.024 68.7925 179.063 75.6229 179.781ZM88.5237 185.855C91.3978 186.157 93.2077 184.877 93.5244 181.868L94.2111 175.342L87.8541 174.674L87.2243 180.658L89.9294 180.943L89.8654 181.551C89.7729 182.431 89.4472 182.601 88.7371 182.527L87.1817 182.363L86.833 185.677L88.5237 185.855ZM105.342 182.905C111.496 183.551 115.274 181.761 115.74 177.331C116.089 174.017 114.062 172.163 111.932 171.29L111.953 171.087C114.122 170.939 115.833 169.307 116.114 166.635C116.491 163.051 113.951 160.22 107.831 159.577C101.711 158.934 98.6373 161.175 98.2601 164.759C97.979 167.43 99.312 169.382 101.403 169.978L101.382 170.181C99.0825 170.589 96.7476 171.984 96.3989 175.298C95.9328 179.728 99.2217 182.261 105.342 182.905ZM106.82 169.18C103.879 168.871 103.014 167.994 103.195 166.269C103.377 164.545 104.405 163.866 107.347 164.176C110.255 164.481 111.12 165.358 110.939 167.083C110.757 168.807 109.728 169.486 106.82 169.18ZM105.856 178.343C102.17 177.956 101.421 176.954 101.628 174.993C101.834 173.032 102.772 172.242 106.457 172.629C110.109 173.013 110.896 173.984 110.69 175.945C110.483 177.907 109.508 178.727 105.856 178.343ZM135.505 185.733L135.985 181.168L127.329 180.258L123.67 179.942C123.784 178.86 125.245 178.296 127.194 177.646L130.765 176.517C133.846 175.508 136.828 173.804 137.241 169.882C137.672 165.79 135.591 162.495 129.606 161.866C122.877 161.158 119.791 164.492 119.329 168.888L119.272 169.429L124.344 169.962L124.405 169.387C124.661 166.953 125.433 166.111 128.713 166.455C131.722 166.772 132.37 167.763 132.199 169.386C132.043 170.874 131.255 171.543 129.16 172.28L125.042 173.728C121.737 174.919 118.569 176.432 118.107 180.827L117.786 183.871L135.505 185.733ZM148.657 187.457C154.709 188.093 158.194 185.519 158.674 180.955C159.126 176.66 156.86 173.824 151.89 173.302C148.475 172.943 146.595 173.907 145.458 175.292L145.289 175.274L145.495 173.313C145.833 170.101 146.775 168.627 150.19 168.986C152.794 169.26 153.805 170.05 153.63 171.707L153.609 171.91L158.985 172.475L159.014 172.204C159.476 167.808 156.623 164.705 151.382 164.154C144.687 163.451 140.849 167.116 140.084 174.385C139.244 182.365 141.42 186.697 148.657 187.457ZM149.237 182.595C146.024 182.258 145.088 181.407 145.295 179.446C145.497 177.518 146.59 176.881 149.802 177.219C153.015 177.556 153.917 178.403 153.714 180.331C153.508 182.292 152.449 182.933 149.237 182.595ZM167.054 189.049L167.683 183.064L161.326 182.396L160.697 188.381L167.054 189.049ZM179.257 190.673C185.682 191.349 189.3 187.832 190.111 180.122C190.958 172.075 188.745 168.081 181.509 167.321C175.457 166.685 171.972 169.259 171.492 173.823C171.04 178.118 173.305 180.954 178.242 181.473C181.624 181.828 183.537 180.867 184.708 179.486L184.877 179.504L184.67 181.465C184.3 184.981 183.418 186.222 180.104 185.874C177.602 185.611 176.625 184.824 176.803 183.134L176.824 182.931L171.448 182.366L171.426 182.568C170.967 186.93 173.914 190.112 179.257 190.673ZM180.397 177.563C177.151 177.222 176.249 176.375 176.452 174.447C176.658 172.486 177.717 171.845 180.963 172.186C184.142 172.521 185.078 173.371 184.871 175.332C184.668 177.26 183.576 177.897 180.397 177.563ZM202.522 193.119C209.014 193.801 213.15 189.586 213.894 182.519C214.634 175.486 211.47 170.47 204.977 169.787C198.451 169.102 194.312 173.35 193.572 180.383C192.828 187.45 195.996 192.433 202.522 193.119ZM203.038 188.216C199.555 187.85 198.416 186.328 198.982 180.952C199.548 175.576 200.979 174.324 204.461 174.69C207.91 175.053 209.049 176.574 208.484 181.951C207.918 187.327 206.487 188.578 203.038 188.216Z" fill="#E4E4F0"/>
<g clip-path="url(#clip0_321_717)">
<path d="M45.0942 258.883C45.7515 258.952 46.3419 258.474 46.411 257.817C46.4804 257.157 46.0023 256.566 45.345 256.497L42.9563 256.246C42.299 256.177 41.8209 255.587 41.8902 254.927C41.9596 254.267 42.5497 253.791 43.207 253.86L45.5958 254.111C47.5677 254.319 49.0073 256.093 48.7997 258.068C48.5925 260.04 46.8151 261.479 44.8432 261.272L43.6488 261.146L43.1346 266.039C45.7949 266.881 47.5976 269.505 47.2945 272.389C47.1528 273.737 46.5564 274.919 45.6931 275.841L52.9152 276.6C52.2624 275.519 51.9247 274.239 52.0664 272.891C52.3692 270.01 54.6784 267.815 57.4557 267.544L57.9699 262.652L56.7755 262.526C54.8036 262.319 53.3643 260.541 53.5716 258.569C53.7791 256.595 55.5562 255.158 57.5282 255.366L59.9169 255.617C60.5742 255.686 61.0526 256.273 60.9832 256.933C60.9138 257.593 60.3234 258.072 59.6661 258.002L57.2774 257.751C56.6201 257.682 56.0297 258.16 55.9603 258.821C55.8912 259.478 56.3693 260.068 57.0266 260.137L66.5759 261.141L66.8267 258.755C67.1039 256.117 65.1915 253.756 62.5539 253.479L41.0722 251.221C38.4345 250.944 36.0729 252.856 35.7957 255.494L35.5449 257.88L45.0942 258.883Z" fill="#E4E4F0"/>
<path d="M60.3558 262.902L66.3248 263.53L65.8233 268.302L59.8543 267.674L60.3558 262.902ZM40.9492 275.342C42.924 275.55 44.6986 274.11 44.9058 272.138C45.1134 270.163 43.6766 268.389 41.7018 268.181L34.5413 267.429L34.2905 269.815C34.0133 272.452 35.9257 274.814 38.5633 275.091L40.9492 275.342ZM35.2939 260.268L41.2629 260.896L40.7613 265.667L34.7923 265.04L35.2939 260.268ZM58.4117 269.938C56.4369 269.73 54.6626 271.167 54.4551 273.142C54.2478 275.114 55.6843 276.891 57.6591 277.098L60.045 277.349C62.6826 277.626 65.0442 275.714 65.3215 273.076L65.5722 270.69L58.4117 269.938Z" fill="#E4E4F0"/>
</g>
<path d="M31.1288 322.886L30.232 322.234L31.5357 320.591L29.4528 320.462L29.5671 319.373L31.6446 319.697L30.7122 317.805L31.71 317.351L32.4894 319.409L33.6642 317.557L34.5595 318.224L33.2408 319.865L35.3403 319.98L35.226 321.069L33.1469 320.76L34.0958 322.64L33.0846 323.076L32.3202 321.02L31.1288 322.886ZM37.8593 323.593L36.9625 322.941L38.2662 321.298L36.1833 321.17L36.2976 320.081L38.3751 320.405L37.4427 318.512L38.4405 318.059L39.2199 320.116L40.3947 318.264L41.29 318.931L39.9714 320.573L42.0708 320.688L41.9565 321.777L39.8774 321.468L40.8263 323.347L39.8151 323.784L39.0507 321.728L37.8593 323.593ZM44.5898 324.301L43.6931 323.648L44.9967 322.006L42.9138 321.877L43.0281 320.788L45.1056 321.112L44.1732 319.219L45.171 318.766L45.9504 320.824L47.1252 318.972L48.0205 319.639L46.7019 321.28L48.8013 321.395L48.687 322.484L46.6079 322.175L47.5568 324.055L46.5456 324.491L45.7812 322.435L44.5898 324.301ZM51.3203 325.008L50.4236 324.356L51.7272 322.713L49.6443 322.585L49.7586 321.496L51.8362 321.82L50.9037 319.927L51.9015 319.474L52.6809 321.531L53.8558 319.679L54.751 320.346L53.4324 321.987L55.5318 322.102L55.4175 323.191L53.3384 322.882L54.2873 324.762L53.2761 325.199L52.5117 323.142L51.3203 325.008ZM60.5326 331.195L66.3192 322.482L60.9338 321.916L61.0701 320.618L68.1859 321.366L68.0653 322.515L62.2332 331.374L60.5326 331.195ZM72.2828 332.566C71.5767 332.491 70.9164 332.317 70.3018 332.041C69.6883 331.755 69.1881 331.396 68.8012 330.963L69.4635 329.826C69.8913 330.253 70.3444 330.582 70.8228 330.813C71.3013 331.045 71.819 331.19 72.3759 331.248C73.092 331.323 73.6502 331.226 74.0505 330.957C74.4608 330.688 74.6963 330.265 74.7568 329.689C74.8174 329.112 74.6734 328.664 74.3247 328.346C73.986 328.029 73.4635 327.833 72.7574 327.759L71.1314 327.588L71.2677 326.29L72.7445 326.445C73.3711 326.511 73.8801 326.404 74.2715 326.123C74.6729 325.844 74.9029 325.425 74.9613 324.869C75.0146 324.361 74.8863 323.956 74.5763 323.652C74.2674 323.338 73.7997 323.148 73.1732 323.082C72.109 322.97 71.1389 323.255 70.2629 323.937L69.8496 322.702C70.3002 322.337 70.8403 322.077 71.4699 321.922C72.1105 321.758 72.764 321.712 73.4303 321.782C74.4845 321.892 75.2794 322.222 75.815 322.771C76.3517 323.31 76.5751 324.007 76.4853 324.863C76.4247 325.44 76.2223 325.931 75.878 326.337C75.5436 326.745 75.1074 327.021 74.5693 327.165C75.1792 327.39 75.6292 327.749 75.9193 328.242C76.2104 328.725 76.3215 329.295 76.2526 329.951C76.1555 330.876 75.7505 331.573 75.0377 332.041C74.3349 332.51 73.4166 332.685 72.2828 332.566ZM82.3606 333.489L82.5847 331.356L77.8557 330.859L77.9763 329.71L83.7336 323L85.0016 323.134L84.2575 330.22L85.794 330.381L85.6577 331.679L84.1212 331.517L83.8972 333.651L82.3606 333.489ZM82.7209 330.058L83.2113 325.389L79.5285 329.723L82.7209 330.058ZM87.6208 334.042L87.7571 332.744L90.1439 332.995L90.9241 325.566L88.9372 326.534L88.4312 325.319L91.5596 323.823L92.6486 323.937L91.6805 333.157L93.9182 333.392L93.7819 334.69L87.6208 334.042Z" fill="#D5D5E0"/>
<path d="M156.443 329.637L151.809 339.649C151.809 339.649 151.696 338.746 151.672 338.188C150.126 333.453 147.029 331.453 147.029 331.453L148.896 343.589L153.162 344.038L160.587 330.068L156.443 329.632L156.443 329.637ZM158.291 344.577L162.157 344.983L166.032 330.645L162.114 330.233L158.291 344.577Z" fill="#E4E4F0"/>
<path d="M151.583 337.303L150.976 330.546C150.976 330.546 150.537 329.048 149.009 328.887C147.476 328.726 143.019 328.258 143.019 328.258C143.019 328.258 150.41 331.388 151.583 337.303ZM171.086 335.397C171.175 334.551 171.913 333.99 173.841 334.193C175.092 334.325 176.424 335.419 176.424 335.419L177.387 332.264C177.387 332.264 175.632 331.354 173.837 331.165C169.766 330.737 167.451 332.531 167.184 335.08C166.7 339.685 172.135 339.624 171.886 341.993C171.844 342.393 171.433 343.298 169.197 343.063C166.956 342.828 165.569 341.821 165.569 341.821L164.577 344.843C164.577 344.843 165.919 345.845 168.693 346.137C171.467 346.428 175.544 344.684 175.868 341.597C176.258 337.885 170.912 337.053 171.086 335.397ZM187.216 332.872L183.144 332.444L175.259 346.36L179.105 346.764L180.119 344.766L184.964 345.275L185.161 347.401L188.684 347.771L187.216 332.872ZM181.483 342.089L184.169 336.803L184.698 342.427L181.483 342.089Z" fill="#E4E4F0"/>
</g>
<g filter="url(#filter1_b_321_717)">
<rect width="220.027" height="302.002" rx="32" transform="matrix(0.990268 -0.139173 0.139049 0.990286 198.316 30.6227)" fill="url(#paint1_radial_321_717)"/>
<rect x="1.12932" y="0.851112" width="218.027" height="300.002" rx="31" transform="matrix(0.990268 -0.139173 0.139049 0.990286 198.209 30.7882)" stroke="url(#paint2_linear_321_717)" stroke-opacity="0.3" stroke-width="2"/>
<path d="M231.656 82.4875L229.499 67.1281L234.924 66.3658C237.451 66.0106 239.49 66.3979 241.041 67.5277C242.606 68.6555 243.562 70.454 243.909 72.9231C244.255 75.3922 243.833 77.3918 242.641 78.922C241.461 80.4355 239.608 81.3699 237.08 81.7251L231.656 82.4875ZM233.655 80.2736L236.683 79.8481C240.474 79.3153 242.098 77.1172 241.556 73.2538C241.015 69.4049 238.85 67.7468 235.059 68.2795L232.031 68.7051L233.655 80.2736ZM252.793 79.7167C251.05 79.9617 249.61 79.668 248.471 78.8357C247.33 77.9889 246.64 76.7159 246.402 75.0165C246.249 73.9272 246.332 72.938 246.651 72.0489C246.983 71.1432 247.509 70.4029 248.228 69.8279C248.947 69.2529 249.815 68.8939 250.831 68.7511C252.298 68.5449 253.519 68.8546 254.494 69.6803C255.467 70.4915 256.069 71.7177 256.299 73.3589L256.403 74.0997L248.604 75.1958C249.074 77.381 250.398 78.3205 252.576 78.0143C253.186 77.9286 253.769 77.7505 254.323 77.4801C254.892 77.2075 255.407 76.8167 255.869 76.3075L256.737 77.7407C256.319 78.2438 255.749 78.6718 255.029 79.0249C254.308 79.3779 253.563 79.6086 252.793 79.7167ZM251.136 70.2856C250.221 70.4142 249.534 70.7995 249.076 71.4415C248.619 72.0834 248.398 72.8846 248.414 73.845L254.362 73.0092C254.18 72.0276 253.811 71.3019 253.256 70.8318C252.699 70.3473 251.993 70.1652 251.136 70.2856ZM265.214 77.9712C264.4 78.0855 263.656 78.005 262.98 77.7296C262.305 77.4543 261.772 77.0331 261.381 76.4659L261.635 78.2742L259.478 78.5773L257.321 63.218L259.522 62.9087L260.427 69.3575C260.665 68.7316 261.065 68.2015 261.626 67.7672C262.201 67.3308 262.881 67.0575 263.666 66.9473C264.61 66.8146 265.462 66.9244 266.222 67.2767C266.997 67.6269 267.632 68.1895 268.125 68.9643C268.632 69.7225 268.965 70.6681 269.124 71.801C269.283 72.9338 269.224 73.9418 268.948 74.8248C268.687 75.7057 268.232 76.4213 267.584 76.9716C266.948 77.5053 266.158 77.8385 265.214 77.9712ZM264.43 76.3484C265.345 76.2198 266.026 75.7909 266.471 75.0618C266.931 74.3307 267.075 73.3478 266.901 72.1133C266.728 70.8787 266.321 69.9807 265.679 69.4192C265.05 68.8411 264.278 68.6164 263.363 68.745C262.448 68.8736 261.76 69.3034 261.3 70.0346C260.852 70.7492 260.715 71.7238 260.889 72.9583C261.062 74.1929 261.463 75.0992 262.092 75.6772C262.736 76.2533 263.515 76.477 264.43 76.3484ZM270.315 63.7023L269.994 61.4147L272.565 61.0535L272.886 63.341L270.315 63.7023ZM272.35 76.7683L270.857 66.1366L273.057 65.8274L274.55 76.4591L272.35 76.7683ZM282.206 75.583C280.87 75.7708 279.827 75.5693 279.078 74.9785C278.328 74.3877 277.863 73.446 277.681 72.1534L276.959 67.0118L274.89 67.3027L274.651 65.6033L276.721 65.3125L276.271 62.1099L278.472 61.8006L278.921 65.0032L282.211 64.5409L282.449 66.2402L279.16 66.7026L279.857 71.6698C279.965 72.4396 280.207 72.9981 280.581 73.3454C280.97 73.6906 281.535 73.8111 282.276 73.707C282.508 73.6744 282.73 73.6209 282.942 73.5468C283.152 73.458 283.361 73.3621 283.568 73.2588L284.149 74.8656C283.95 75.0269 283.659 75.1715 283.277 75.2992C282.912 75.4394 282.555 75.534 282.206 75.583ZM298.479 73.2961C296.925 73.5145 295.551 73.3817 294.357 72.8978C293.164 72.4138 292.187 71.6255 291.426 70.5327C290.678 69.4234 290.191 68.0626 289.964 66.4504C289.738 64.8382 289.832 63.4031 290.248 62.145C290.679 60.8848 291.401 59.8577 292.415 59.0635C293.429 58.2693 294.713 57.763 296.267 57.5446C297.313 57.3976 298.309 57.4279 299.257 57.6354C300.217 57.8263 301.044 58.1839 301.74 58.7082L301.21 60.6267C300.458 60.1251 299.708 59.7936 298.959 59.6322C298.224 59.4542 297.442 59.4234 296.614 59.5397C294.958 59.7724 293.766 60.4584 293.037 61.5975C292.309 62.7367 292.076 64.2431 292.339 66.1167C292.602 67.9903 293.242 69.3815 294.258 70.2902C295.272 71.1845 296.607 71.5152 298.263 71.2825C299.091 71.1662 299.835 70.9283 300.495 70.5689C301.168 70.1929 301.797 69.6602 302.381 68.9708L303.419 70.6689C302.893 71.3501 302.196 71.922 301.328 72.3847C300.474 72.8453 299.524 73.1491 298.479 73.2961ZM309.114 71.8013C308.373 71.9054 307.692 71.8531 307.07 71.6442C306.449 71.4354 305.929 71.1086 305.511 70.6637C305.108 70.2169 304.862 69.6812 304.774 69.0566C304.664 68.2723 304.774 67.6275 305.103 67.1221C305.446 66.6147 306.061 66.195 306.947 65.8631C307.848 65.5291 309.083 65.2519 310.652 65.0315L311.393 64.9274L311.313 64.3609C311.197 63.533 310.939 62.962 310.539 62.6479C310.14 62.3338 309.541 62.2329 308.742 62.3452C308.132 62.4309 307.535 62.611 306.951 62.8856C306.366 63.1456 305.781 63.5166 305.197 63.9985L304.305 62.5466C304.801 62.0769 305.447 61.6677 306.243 61.319C307.038 60.9702 307.813 60.7428 308.568 60.6366C310.021 60.4325 311.145 60.63 311.94 61.2292C312.733 61.8139 313.232 62.8397 313.438 64.3066L314.359 70.8643L312.289 71.1552L312.041 69.3905C311.866 70.0372 311.526 70.5737 311.023 70.9998C310.52 71.426 309.884 71.6932 309.114 71.8013ZM309.33 70.1715C310.114 70.0613 310.729 69.6935 311.174 69.068C311.62 68.4426 311.783 67.7087 311.665 66.8663L311.582 66.2781L310.863 66.3792C309.803 66.5282 308.975 66.6964 308.379 66.8838C307.798 67.0691 307.394 67.3036 307.167 67.5873C306.953 67.8544 306.875 68.1985 306.935 68.6197C307.012 69.1716 307.264 69.5953 307.691 69.8909C308.115 70.1718 308.662 70.2654 309.33 70.1715ZM317.389 70.4384L315.897 59.8067L318.032 59.5066L318.298 61.402C318.672 60.0609 319.721 59.1952 321.443 58.805L322.156 58.6604L322.572 60.5126L321.261 60.83C319.356 61.2903 318.53 62.421 318.783 64.222L319.612 70.1261L317.389 70.4384ZM329.447 68.9437C328.518 69.0743 327.667 68.9718 326.894 68.6361C326.133 68.2838 325.499 67.7213 324.991 66.9485C324.482 66.1758 324.149 65.2229 323.989 64.09C323.83 62.9572 323.89 61.9565 324.168 61.088C324.444 60.205 324.899 59.4894 325.533 58.9412C326.166 58.393 326.955 58.0525 327.9 57.9198C328.698 57.8076 329.434 57.8818 330.108 58.1426C330.781 58.4035 331.312 58.8102 331.701 59.3628L330.793 52.8923L332.993 52.583L335.15 67.9424L332.993 68.2455L332.733 66.3936C332.517 67.0756 332.116 67.643 331.528 68.0959C330.954 68.5468 330.261 68.8294 329.447 68.9437ZM329.775 67.1648C330.676 67.0382 331.356 66.6093 331.816 65.8782C332.276 65.147 332.42 64.1642 332.246 62.9296C332.073 61.6951 331.666 60.797 331.024 60.2355C330.38 59.6595 329.608 59.4348 328.708 59.5613C327.793 59.6899 327.105 60.1198 326.645 60.851C326.183 61.5676 326.038 62.5432 326.212 63.7777C326.385 65.0123 326.794 65.9176 327.437 66.4936C328.081 67.0696 328.86 67.2933 329.775 67.1648Z" fill="#D5D5E0"/>
<path d="M251.399 140.706L250.959 137.575C255.895 136.298 257.437 133.094 256.983 129.862C256.52 126.562 254.554 124.298 249.679 124.056L245.563 123.844C242.866 123.708 242.213 123.457 242.01 122.009C241.811 120.595 242.63 119.827 245.526 119.421C248.859 118.952 249.944 119.589 250.275 121.946L250.327 122.317L255.31 121.616L255.272 121.347C254.738 117.542 252.369 114.854 247.744 114.68L247.286 111.414L242.606 112.071L243.05 115.236C238.157 116.576 236.591 119.852 237.021 122.916C237.513 126.418 239.638 128.351 244.052 128.486L248.124 128.635C251.365 128.728 251.777 129.22 251.99 130.735C252.203 132.25 251.576 132.922 248.714 133.324C244.64 133.897 243.632 133.317 243.282 130.826L243.235 130.489L238.285 131.185L238.347 131.622C238.938 135.831 241.49 138.116 246.265 138.132L246.719 141.364L251.399 140.706ZM278.102 133.52L277.463 128.975L268.844 130.186L265.217 130.764C265.066 129.687 266.347 128.786 268.081 127.684L271.273 125.725C274.018 124 276.5 121.625 275.952 117.72C275.38 113.645 272.564 110.951 266.604 111.789C259.904 112.73 257.716 116.712 258.331 121.089L258.407 121.627L263.457 120.918L263.377 120.345C263.036 117.921 263.582 116.917 266.848 116.458C269.844 116.037 270.713 116.842 270.94 118.458C271.148 119.94 270.545 120.78 268.691 122.002L265.045 124.402C262.127 126.358 259.419 128.592 260.034 132.969L260.459 136L278.102 133.52ZM283.542 137.837C286.404 137.435 287.851 135.755 287.43 132.758L286.518 126.26L280.188 127.15L281.025 133.109L283.718 132.731L283.803 133.337C283.926 134.212 283.651 134.457 282.944 134.556L281.396 134.774L281.859 138.073L283.542 137.837ZM299.016 130.924C304.706 130.124 308.006 127.463 307.391 123.086C306.923 119.753 304.696 118.075 301.422 118.226L301.393 118.024C304.309 117.271 305.333 115.273 304.959 112.613C304.392 108.572 300.872 106.973 295.552 107.72C289.761 108.534 286.815 111.764 287.444 116.242L287.496 116.612L292.445 115.917L292.403 115.613C292.114 113.56 293.073 112.807 296.07 112.386C298.426 112.055 299.791 112.481 300.041 114.265C300.297 116.083 299.579 116.596 297.559 116.88L293.35 117.472L293.927 121.579L298.674 120.912C300.863 120.605 301.867 120.91 302.179 123.132C302.472 125.22 301.124 125.89 298.363 126.278C294.761 126.784 293.901 126.287 293.613 124.233L293.518 123.56L288.569 124.255L288.673 124.996C289.302 129.474 292.215 131.88 299.016 130.924ZM328.77 126.399L328.132 121.854L319.512 123.065L315.885 123.643C315.734 122.566 317.015 121.665 318.749 120.563L321.941 118.604C324.686 116.879 327.168 114.504 326.62 110.599C326.048 106.525 323.232 103.83 317.272 104.668C310.572 105.609 308.385 109.591 308.999 113.968L309.075 114.506L314.125 113.797L314.045 113.224C313.704 110.8 314.25 109.796 317.516 109.337C320.513 108.916 321.381 109.721 321.608 111.337C321.816 112.819 321.213 113.659 319.359 114.881L315.713 117.282C312.795 119.237 310.087 121.471 310.702 125.848L311.127 128.879L328.77 126.399ZM341.069 125.014C347.197 124.153 350.43 121.501 349.811 117.09C349.347 113.791 346.932 112.482 344.654 112.15L344.625 111.948C346.694 111.279 347.959 109.282 347.585 106.622C347.084 103.053 343.935 100.921 337.841 101.777C331.747 102.634 329.307 105.552 329.808 109.12C330.182 111.78 331.947 113.352 334.12 113.424L334.149 113.626C332.016 114.578 330.089 116.497 330.552 119.797C331.171 124.208 334.975 125.87 341.069 125.014ZM339.184 111.339C336.254 111.751 335.203 111.109 334.962 109.392C334.721 107.675 335.555 106.768 338.484 106.356C341.38 105.949 342.431 106.591 342.672 108.308C342.913 110.025 342.079 110.932 339.184 111.339ZM340.465 120.464C336.795 120.98 335.826 120.189 335.551 118.236C335.277 116.283 335.996 115.289 339.666 114.774C343.302 114.263 344.3 115.015 344.575 116.968C344.849 118.921 344.101 119.953 340.465 120.464ZM359.164 122.127L358.327 116.168L351.998 117.058L352.834 123.017L359.164 122.127ZM371.329 120.761C378.164 119.801 380.361 116.127 379.713 111.514C379.084 107.036 376.032 104.616 371.049 105.316C367.985 105.746 366.165 106.964 365.403 107.895L365.268 107.914L364.948 102.946L377.035 101.247L376.397 96.7017L359.832 99.0298L360.917 111.65L365.48 111.626C366.16 111.084 367.71 110.146 369.966 109.828C373.131 109.384 374.456 110.021 374.787 112.378C375.109 114.668 374.116 115.666 370.917 116.115C367.921 116.536 366.498 116.187 366.267 114.537L366.229 114.268L361.212 114.973L361.25 115.242C361.836 119.417 365.235 121.618 371.329 120.761ZM394.235 117.542C400.7 116.633 403.693 111.543 402.705 104.506C401.721 97.503 397.437 93.4013 390.973 94.3098C384.475 95.2231 381.486 100.347 382.47 107.35C383.458 114.387 387.737 118.455 394.235 117.542ZM393.55 112.66C390.082 113.147 388.608 111.947 387.857 106.593C387.105 101.24 388.191 99.6793 391.658 99.192C395.093 98.7093 396.566 99.9099 397.318 105.263C398.069 110.617 396.984 112.177 393.55 112.66Z" fill="#E4E4F0"/>
<g clip-path="url(#clip1_321_717)">
<path d="M258.741 219.249C259.396 219.157 259.853 218.55 259.761 217.896C259.669 217.238 259.062 216.781 258.407 216.873L256.029 217.207C255.374 217.299 254.768 216.842 254.675 216.185C254.583 215.528 255.04 214.924 255.695 214.832L258.073 214.497C260.037 214.221 261.863 215.595 262.139 217.561C262.415 219.525 261.039 221.351 259.076 221.627L257.886 221.794L258.571 226.666C261.356 226.839 263.74 228.95 264.144 231.821C264.332 233.164 264.039 234.454 263.425 235.558L270.616 234.547C269.721 233.656 269.084 232.496 268.895 231.153C268.492 228.285 270.201 225.596 272.831 224.662L272.146 219.79L270.957 219.958C268.993 220.233 267.167 218.857 266.891 216.894C266.615 214.927 267.991 213.104 269.955 212.828L272.333 212.493C272.988 212.401 273.594 212.856 273.687 213.513C273.779 214.17 273.322 214.777 272.667 214.869L270.289 215.203C269.634 215.295 269.177 215.902 269.269 216.559C269.361 217.214 269.968 217.671 270.623 217.579L280.131 216.243L279.797 213.867C279.428 211.241 277.001 209.412 274.375 209.781L252.985 212.787C250.359 213.156 248.53 215.583 248.899 218.209L249.233 220.585L258.741 219.249Z" fill="#E4E4F0"/>
<path d="M274.522 219.456L280.465 218.621L281.133 223.373L275.19 224.208L274.522 219.456ZM258.701 236.221C260.667 235.945 262.041 234.119 261.765 232.155C261.489 230.189 259.665 228.815 257.699 229.092L250.569 230.094L250.903 232.469C251.272 235.096 253.699 236.924 256.325 236.555L258.701 236.221ZM249.567 222.964L255.511 222.128L256.178 226.88L250.235 227.715L249.567 222.964ZM274.337 226.753C272.371 227.03 270.997 228.853 271.273 230.819C271.549 232.783 273.373 234.159 275.339 233.883L277.715 233.549C280.342 233.18 282.17 230.753 281.801 228.127L281.467 225.751L274.337 226.753Z" fill="#E4E4F0"/>
</g>
<path d="M260.674 284.729L259.646 284.313L260.514 282.404L258.462 282.783L258.309 281.699L260.403 281.51L259.041 279.899L259.899 279.218L261.153 281.026L261.845 278.945L262.875 279.376L261.993 281.287L264.058 280.891L264.21 281.975L262.118 282.178L263.494 283.772L262.618 284.441L261.379 282.63L260.674 284.729ZM267.376 283.787L266.348 283.371L267.216 281.462L265.163 281.841L265.011 280.757L267.105 280.568L265.742 278.957L266.601 278.276L267.855 280.084L268.547 278.003L269.577 278.434L268.694 280.345L270.759 279.949L270.912 281.033L268.82 281.236L270.195 282.83L269.32 283.499L268.081 281.689L267.376 283.787ZM274.078 282.845L273.05 282.429L273.917 280.52L271.865 280.899L271.713 279.815L273.807 279.627L272.444 278.016L273.303 277.334L274.557 279.143L275.249 277.061L276.279 277.492L275.396 279.403L277.461 279.007L277.614 280.091L275.522 280.294L276.897 281.889L276.022 282.557L274.782 280.747L274.078 282.845ZM280.779 281.903L279.751 281.487L280.619 279.578L278.567 279.957L278.414 278.873L280.509 278.685L279.146 277.074L280.004 276.393L281.258 278.201L281.95 276.119L282.98 276.55L282.098 278.461L284.163 278.065L284.315 279.149L282.223 279.353L283.599 280.947L282.723 281.615L281.484 279.805L280.779 281.903ZM294.204 285.394C293.006 285.562 292.034 285.436 291.288 285.016C290.552 284.594 290.12 283.923 289.99 283.002C289.9 282.358 289.991 281.79 290.265 281.297C290.548 280.793 290.955 280.418 291.486 280.171C290.961 280.033 290.525 279.771 290.178 279.386C289.83 278.99 289.616 278.511 289.537 277.946C289.414 277.075 289.64 276.346 290.214 275.761C290.788 275.175 291.615 274.806 292.694 274.655C293.783 274.502 294.685 274.627 295.398 275.032C296.111 275.437 296.529 276.075 296.652 276.946C296.731 277.511 296.653 278.032 296.417 278.509C296.191 278.985 295.845 279.357 295.377 279.625C295.965 279.714 296.46 279.962 296.861 280.37C297.26 280.769 297.505 281.29 297.595 281.933C297.725 282.854 297.489 283.619 296.888 284.229C296.297 284.837 295.403 285.226 294.204 285.394ZM293.354 279.348C294.018 279.255 294.511 279.029 294.834 278.671C295.166 278.301 295.294 277.844 295.217 277.299C295.142 276.764 294.894 276.37 294.475 276.116C294.065 275.86 293.529 275.779 292.865 275.873C292.202 275.966 291.709 276.192 291.385 276.55C291.062 276.909 290.938 277.355 291.013 277.89C291.09 278.435 291.334 278.84 291.745 279.105C292.154 279.361 292.691 279.442 293.354 279.348ZM294.033 284.176C295.608 283.955 296.31 283.24 296.14 282.032C295.972 280.834 295.1 280.345 293.525 280.566C292.753 280.675 292.185 280.906 291.821 281.26C291.466 281.613 291.331 282.092 291.416 282.696C291.586 283.904 292.459 284.397 294.033 284.176ZM303.274 284.119C302.601 284.214 301.933 284.202 301.27 284.083C300.615 283.953 300.053 283.724 299.583 283.396L299.935 282.135C300.95 282.739 301.991 282.967 303.061 282.816C303.744 282.72 304.253 282.462 304.588 282.041C304.921 281.611 305.045 281.093 304.96 280.489C304.873 279.865 304.618 279.381 304.196 279.037C303.773 278.692 303.236 278.566 302.582 278.657C301.661 278.787 300.977 279.272 300.53 280.112L299.46 280.263L298.574 273.965L304.813 273.088L304.995 274.38L300.256 275.046L300.722 278.358C301.209 277.795 301.878 277.454 302.729 277.334C303.393 277.241 303.986 277.299 304.511 277.508C305.035 277.717 305.466 278.055 305.805 278.523C306.142 278.98 306.357 279.541 306.45 280.204C306.545 280.878 306.48 281.493 306.255 282.049C306.029 282.596 305.664 283.051 305.16 283.415C304.655 283.779 304.027 284.013 303.274 284.119ZM312.949 282.623L312.651 280.499L307.942 281.161L307.781 280.017L311.744 272.114L313.007 271.936L313.999 278.992L315.529 278.777L315.711 280.069L314.181 280.284L314.479 282.408L312.949 282.623ZM312.469 279.207L311.815 274.558L309.29 279.654L312.469 279.207ZM320.761 281.662C320.058 281.76 319.375 281.75 318.712 281.632C318.047 281.503 317.475 281.275 316.995 280.949L317.362 279.685C317.881 279.996 318.4 280.206 318.92 280.315C319.441 280.423 319.978 280.439 320.532 280.361C321.245 280.261 321.764 280.031 322.087 279.673C322.42 279.313 322.546 278.846 322.465 278.271C322.385 277.697 322.136 277.298 321.721 277.073C321.316 276.848 320.762 276.784 320.058 276.883L318.439 277.11L318.258 275.818L319.728 275.611C320.352 275.524 320.82 275.296 321.132 274.93C321.454 274.561 321.576 274.1 321.498 273.545C321.427 273.04 321.204 272.678 320.83 272.458C320.454 272.228 319.954 272.156 319.33 272.244C318.271 272.393 317.398 272.904 316.713 273.778L316.014 272.68C316.363 272.217 316.824 271.834 317.397 271.531C317.979 271.217 318.602 271.014 319.265 270.92C320.315 270.773 321.166 270.901 321.819 271.304C322.47 271.697 322.855 272.319 322.975 273.171C323.056 273.745 322.978 274.271 322.742 274.749C322.516 275.225 322.16 275.598 321.673 275.868C322.319 275.939 322.843 276.179 323.243 276.587C323.643 276.985 323.888 277.511 323.98 278.165C324.11 279.086 323.885 279.859 323.307 280.486C322.738 281.111 321.89 281.503 320.761 281.662Z" fill="#D5D5E0"/>
<path d="M383.899 260.964L381.825 271.799C381.825 271.799 381.497 270.95 381.339 270.415C378.693 266.194 375.204 265.003 375.204 265.003L379.952 276.327L384.2 275.73L388.024 260.379L383.898 260.959L383.899 260.964ZM389.306 275.012L393.156 274.471L393.447 259.622L389.546 260.17L389.306 275.012Z" fill="#E4E4F0"/>
<path d="M381.038 269.577L378.814 263.167C378.814 263.167 378.026 261.82 376.505 262.034C374.978 262.249 370.541 262.872 370.541 262.872C370.541 262.872 378.47 264.122 381.038 269.577ZM399.5 263.01C399.382 262.167 399.963 261.445 401.882 261.175C403.128 261 404.685 261.739 404.685 261.739L404.857 258.445C404.857 258.445 402.934 257.987 401.146 258.238C397.092 258.808 395.281 261.108 395.638 263.646C396.283 268.231 401.541 266.857 401.873 269.216C401.929 269.614 401.749 270.592 399.523 270.905C397.291 271.219 395.702 270.578 395.702 270.578L395.471 273.75C395.471 273.75 397.015 274.398 399.777 274.009C402.539 273.621 406.073 270.943 405.641 267.869C405.121 264.172 399.732 264.659 399.5 263.01ZM414.541 256.657L410.486 257.227L406.202 272.638L410.032 272.099L410.532 269.915L415.357 269.237L416.062 271.252L419.57 270.759L414.541 256.657ZM411.208 266.988L412.535 261.209L414.41 266.538L411.208 266.988Z" fill="#E4E4F0"/>
</g>
<defs>
<filter id="filter0_b_321_717" x="-11.5089" y="49.2419" width="274.427" height="347.343" filterUnits="userSpaceOnUse" color-interpolation-filters="sRGB">
<feFlood flood-opacity="0" result="BackgroundImageFix"/>
<feGaussianBlur in="BackgroundImageFix" stdDeviation="6"/>
<feComposite in2="SourceAlpha" operator="in" result="effect1_backgroundBlur_321_717"/>
<feBlend mode="normal" in="SourceGraphic" in2="effect1_backgroundBlur_321_717" result="shape"/>
</filter>
<filter id="filter1_b_321_717" x="186.316" y="-11.9991" width="283.879" height="353.69" filterUnits="userSpaceOnUse" color-interpolation-filters="sRGB">
<feFlood flood-opacity="0" result="BackgroundImageFix"/>
<feGaussianBlur in="BackgroundImageFix" stdDeviation="6"/>
<feComposite in2="SourceAlpha" operator="in" result="effect1_backgroundBlur_321_717"/>
<feBlend mode="normal" in="SourceGraphic" in2="effect1_backgroundBlur_321_717" result="shape"/>
</filter>
<linearGradient id="paint0_linear_321_717" x1="0" y1="0" x2="207.935" y2="170.191" gradientUnits="userSpaceOnUse">
<stop stop-color="#6262D9"/>
<stop offset="1" stop-color="#9D62D9"/>
</linearGradient>
<radialGradient id="paint1_radial_321_717" cx="0" cy="0" r="1" gradientUnits="userSpaceOnUse" gradientTransform="translate(15.7162 10.8721) rotate(54.9394) scale(355.668 279.833)">
<stop stop-color="#232336" stop-opacity="0.7"/>
<stop offset="0.0001" stop-color="#232336" stop-opacity="0.7"/>
<stop offset="1" stop-color="#232336" stop-opacity="0.1"/>
</radialGradient>
<linearGradient id="paint2_linear_321_717" x1="0" y1="0" x2="207.935" y2="170.191" gradientUnits="userSpaceOnUse">
<stop stop-color="white" stop-opacity="0.32"/>
<stop offset="1" stop-color="#BEBEBE" stop-opacity="0.23"/>
</linearGradient>
<clipPath id="clip0_321_717">
<rect width="31.2019" height="56.0019" fill="white" transform="translate(37.97 234.807) rotate(6)"/>
</clipPath>
<clipPath id="clip1_321_717">
<rect width="31.2019" height="56.0019" fill="white" transform="translate(246.004 197.611) rotate(-8)"/>
</clipPath>
</defs>
</svg>
