<svg width="24" height="24" viewBox="0 0 24 24" fill="none" xmlns="http://www.w3.org/2000/svg">
<path d="M14.4 15.12V13.2547C14.4 12.9206 14.5725 12.6148 14.8246 12.3956C15.7364 11.6033 16.32 10.4172 16.32 9.12001C16.32 8.88001 16.32 6.48001 16.32 6.24001C16.32 3.84001 14.4 1.92001 12 1.92001C9.6 1.92001 7.68 3.84001 7.68 6.24001C7.68 6.48001 7.68 8.88001 7.68 9.12001C7.68 10.4172 8.26362 11.6033 9.17536 12.3956C9.42753 12.6148 9.6 12.9206 9.6 13.2547V15.12C9.6 16.6737 3.85223 16.8322 2.98819 20.6057C2.86491 21.144 3.32771 21.6 3.88 21.6H20.12C20.6723 21.6 21.135 21.1441 21.0137 20.6053C20.1561 16.7974 14.4 16.72 14.4 15.12Z" stroke="#A7A7CC" stroke-width="2" stroke-miterlimit="10" stroke-linecap="round"/>
</svg>
